<?xml version="1.0" encoding="UTF-8"?>
<!-- Generated by Pixelmator Pro 3.1.1 -->
<svg width="2880" height="1800" viewBox="0 0 2880 1800" xmlns="http://www.w3.org/2000/svg" xmlns:xlink="http://www.w3.org/1999/xlink">
    <filter id="filter1" x="0" y="0" width="2880" height="1800" filterUnits="userSpaceOnUse" primitiveUnits="userSpaceOnUse" color-interpolation-filters="sRGB">
        <feGaussianBlur stdDeviation="23.259107"/>
    </filter>
    <path id="SIM-copy-3" fill="none" stroke="#904cd7" stroke-width="25" stroke-linecap="round" stroke-linejoin="round" filter="url(#filter1)" d="M 1933.554321 72.487915 L 2257.825928 1454.589966 L 2262.149658 1454.589966 L 2605.877441 72.487915 L 2848 72.487915 L 2848 1727.011475 L 2677.217041 1727.011475 L 2677.217041 384.897949 L 2670.731445 384.897949 L 2335.651123 1727.011475 L 2184.324219 1727.011475 L 1844.920166 384.897949 L 1840.596558 384.897949 L 1840.596558 1727.011475 L 1669.813599 1727.011475 L 1669.813599 72.487915 Z M 1399.587402 72.487915 L 1399.587402 1727.011475 L 1228.804565 1727.011475 L 1228.804565 72.487915 Z M 201.944748 1192.165527 C 201.944748 1242.151367 209.150711 1291.303345 223.562897 1339.623047 C 237.975021 1387.942627 258.872314 1430.430054 286.255341 1467.086426 C 313.638397 1503.742554 346.425537 1533.317139 384.617706 1555.810791 C 422.809845 1578.304443 464.964752 1589.551025 511.083618 1589.551025 C 549.996338 1589.551025 587.467407 1583.719482 623.49762 1572.056152 C 659.528015 1560.392822 690.873962 1542.481445 717.536438 1518.321533 C 744.198853 1494.161743 765.456421 1464.58728 781.309814 1429.597168 C 797.163147 1394.607056 805.089722 1352.952759 805.089722 1304.633057 C 805.089722 1251.314819 793.92041 1205.078613 771.581726 1165.923096 C 749.242859 1126.767334 721.139648 1093.44397 687.271118 1065.951782 C 653.402527 1038.459595 616.291809 1016.382813 575.937805 999.720825 C 535.583923 983.058899 497.392273 969.729492 461.361908 959.732361 C 410.919525 946.402832 361.918915 925.992188 314.358887 898.5 C 266.798828 871.007813 224.643982 836.851318 187.893021 796.02948 C 151.142059 755.207764 121.237335 706.888794 98.17791 651.071289 C 75.118492 595.253662 63.588932 533.188843 63.588932 464.875 C 63.588932 403.225708 75.839081 345.742798 100.339737 292.424561 C 124.84034 239.106323 157.267197 192.870117 197.621155 153.714355 C 237.975128 114.558838 284.093292 84.151245 335.97699 62.490723 C 387.860718 40.8302 441.184753 30 495.950897 30 C 583.864929 30 656.284912 47.911499 713.21283 83.734497 C 770.140747 119.557739 815.17804 163.711304 848.325928 216.196411 C 881.473816 268.681641 904.893188 324.914795 918.584717 384.897949 C 932.276245 444.880859 939.121948 499.031616 939.121948 547.351074 L 768.338989 547.351074 C 768.338989 499.031616 760.772644 454.0448 745.639893 412.389893 C 730.507202 370.734985 710.330566 334.912476 685.109253 304.920898 C 659.888062 274.929321 631.064209 251.186401 598.636902 233.691406 C 566.209595 216.196411 531.981262 207.449097 495.950897 207.449097 C 462.802979 207.449097 430.73645 213.280518 399.750397 224.943848 C 368.764282 236.607178 341.021362 253.685547 316.520721 276.179199 C 292.02005 298.672729 272.203644 325.748047 257.070923 357.405762 C 241.938171 389.063477 234.371918 424.052979 234.371918 462.37561 C 234.371918 512.361572 244.099991 555.681885 263.556366 592.338135 C 283.012726 628.994385 307.873322 660.651611 338.138794 687.310791 C 368.404236 713.969971 401.911987 735.213623 438.662933 751.04248 C 475.41391 766.871338 510.362823 779.784119 543.510742 789.781311 C 599.718018 804.7771 653.762756 826.437256 705.646423 854.762573 C 757.530151 883.087952 803.648254 918.494019 844.002258 960.981995 C 884.356262 1003.469971 916.422852 1053.038574 940.202881 1109.689209 C 963.982849 1166.339844 975.872681 1230.487305 975.872681 1302.133789 C 975.872681 1377.112671 964.34314 1443.342773 941.283691 1500.82666 C 918.224304 1558.310425 885.797485 1606.629395 844.002258 1645.784912 C 802.207092 1684.94043 752.846252 1714.931519 695.918335 1735.759033 C 638.990417 1756.586426 577.379395 1767 511.083618 1767 C 449.111359 1767 388.94165 1752.004395 330.572449 1722.012939 C 272.203308 1692.021362 220.680679 1651.200317 176.003067 1599.548218 C 131.325455 1547.896118 95.655945 1487.080811 68.993462 1417.100708 C 42.331036 1347.120483 29 1272.142822 29 1192.165527 Z"/>
    <filter id="filter2" x="0" y="0" width="2880" height="1800" filterUnits="userSpaceOnUse" primitiveUnits="userSpaceOnUse" color-interpolation-filters="sRGB">
        <feGaussianBlur stdDeviation="1"/>
    </filter>
    <path id="SIM" fill="none" stroke="#ffffff" stroke-width="8" stroke-linecap="round" stroke-linejoin="round" filter="url(#filter2)" d="M 1933.554321 72.487915 L 2257.825928 1454.589966 L 2262.149658 1454.589966 L 2605.877441 72.487915 L 2848 72.487915 L 2848 1727.011475 L 2677.217041 1727.011475 L 2677.217041 384.897949 L 2670.731445 384.897949 L 2335.651123 1727.011475 L 2184.324219 1727.011475 L 1844.920166 384.897949 L 1840.596558 384.897949 L 1840.596558 1727.011475 L 1669.813599 1727.011475 L 1669.813599 72.487915 Z M 1399.587402 72.487915 L 1399.587402 1727.011475 L 1228.804565 1727.011475 L 1228.804565 72.487915 Z M 201.944748 1192.165527 C 201.944748 1242.151367 209.150711 1291.303345 223.562897 1339.623047 C 237.975021 1387.942627 258.872314 1430.430054 286.255341 1467.086426 C 313.638397 1503.742554 346.425537 1533.317139 384.617706 1555.810791 C 422.809845 1578.304443 464.964752 1589.551025 511.083618 1589.551025 C 549.996338 1589.551025 587.467407 1583.719482 623.49762 1572.056152 C 659.528015 1560.392822 690.873962 1542.481445 717.536438 1518.321533 C 744.198853 1494.161743 765.456421 1464.58728 781.309814 1429.597168 C 797.163147 1394.607056 805.089722 1352.952759 805.089722 1304.633057 C 805.089722 1251.314819 793.92041 1205.078613 771.581726 1165.923096 C 749.242859 1126.767334 721.139648 1093.44397 687.271118 1065.951782 C 653.402527 1038.459595 616.291809 1016.382813 575.937805 999.720825 C 535.583923 983.058899 497.392273 969.729492 461.361908 959.732361 C 410.919525 946.402832 361.918915 925.992188 314.358887 898.5 C 266.798828 871.007813 224.643982 836.851318 187.893021 796.02948 C 151.142059 755.207764 121.237335 706.888794 98.17791 651.071289 C 75.118492 595.253662 63.588932 533.188843 63.588932 464.875 C 63.588932 403.225708 75.839081 345.742798 100.339737 292.424561 C 124.84034 239.106323 157.267197 192.870117 197.621155 153.714355 C 237.975128 114.558838 284.093292 84.151245 335.97699 62.490723 C 387.860718 40.8302 441.184753 30 495.950897 30 C 583.864929 30 656.284912 47.911499 713.21283 83.734497 C 770.140747 119.557739 815.17804 163.711304 848.325928 216.196411 C 881.473816 268.681641 904.893188 324.914795 918.584717 384.897949 C 932.276245 444.880859 939.121948 499.031616 939.121948 547.351074 L 768.338989 547.351074 C 768.338989 499.031616 760.772644 454.0448 745.639893 412.389893 C 730.507202 370.734985 710.330566 334.912476 685.109253 304.920898 C 659.888062 274.929321 631.064209 251.186401 598.636902 233.691406 C 566.209595 216.196411 531.981262 207.449097 495.950897 207.449097 C 462.802979 207.449097 430.73645 213.280518 399.750397 224.943848 C 368.764282 236.607178 341.021362 253.685547 316.520721 276.179199 C 292.02005 298.672729 272.203644 325.748047 257.070923 357.405762 C 241.938171 389.063477 234.371918 424.052979 234.371918 462.37561 C 234.371918 512.361572 244.099991 555.681885 263.556366 592.338135 C 283.012726 628.994385 307.873322 660.651611 338.138794 687.310791 C 368.404236 713.969971 401.911987 735.213623 438.662933 751.04248 C 475.41391 766.871338 510.362823 779.784119 543.510742 789.781311 C 599.718018 804.7771 653.762756 826.437256 705.646423 854.762573 C 757.530151 883.087952 803.648254 918.494019 844.002258 960.981995 C 884.356262 1003.469971 916.422852 1053.038574 940.202881 1109.689209 C 963.982849 1166.339844 975.872681 1230.487305 975.872681 1302.133789 C 975.872681 1377.112671 964.34314 1443.342773 941.283691 1500.82666 C 918.224304 1558.310425 885.797485 1606.629395 844.002258 1645.784912 C 802.207092 1684.94043 752.846252 1714.931519 695.918335 1735.759033 C 638.990417 1756.586426 577.379395 1767 511.083618 1767 C 449.111359 1767 388.94165 1752.004395 330.572449 1722.012939 C 272.203308 1692.021362 220.680679 1651.200317 176.003067 1599.548218 C 131.325455 1547.896118 95.655945 1487.080811 68.993462 1417.100708 C 42.331036 1347.120483 29 1272.142822 29 1192.165527 Z"/>
    <filter id="filter3" x="0" y="0" width="2880" height="1800" filterUnits="userSpaceOnUse" primitiveUnits="userSpaceOnUse" color-interpolation-filters="sRGB">
        <feGaussianBlur stdDeviation="1"/>
    </filter>
    <path id="SIM-copy-4" fill="none" stroke="#ffffff" stroke-width="8" stroke-linecap="round" stroke-linejoin="round" filter="url(#filter3)" d="M 1933.554321 72.487915 L 2257.825928 1454.589966 L 2262.149658 1454.589966 L 2605.877441 72.487915 L 2848 72.487915 L 2848 1727.011475 L 2677.217041 1727.011475 L 2677.217041 384.897949 L 2670.731445 384.897949 L 2335.651123 1727.011475 L 2184.324219 1727.011475 L 1844.920166 384.897949 L 1840.596558 384.897949 L 1840.596558 1727.011475 L 1669.813599 1727.011475 L 1669.813599 72.487915 Z M 1399.587402 72.487915 L 1399.587402 1727.011475 L 1228.804565 1727.011475 L 1228.804565 72.487915 Z M 201.944748 1192.165527 C 201.944748 1242.151367 209.150711 1291.303345 223.562897 1339.623047 C 237.975021 1387.942627 258.872314 1430.430054 286.255341 1467.086426 C 313.638397 1503.742554 346.425537 1533.317139 384.617706 1555.810791 C 422.809845 1578.304443 464.964752 1589.551025 511.083618 1589.551025 C 549.996338 1589.551025 587.467407 1583.719482 623.49762 1572.056152 C 659.528015 1560.392822 690.873962 1542.481445 717.536438 1518.321533 C 744.198853 1494.161743 765.456421 1464.58728 781.309814 1429.597168 C 797.163147 1394.607056 805.089722 1352.952759 805.089722 1304.633057 C 805.089722 1251.314819 793.92041 1205.078613 771.581726 1165.923096 C 749.242859 1126.767334 721.139648 1093.44397 687.271118 1065.951782 C 653.402527 1038.459595 616.291809 1016.382813 575.937805 999.720825 C 535.583923 983.058899 497.392273 969.729492 461.361908 959.732361 C 410.919525 946.402832 361.918915 925.992188 314.358887 898.5 C 266.798828 871.007813 224.643982 836.851318 187.893021 796.02948 C 151.142059 755.207764 121.237335 706.888794 98.17791 651.071289 C 75.118492 595.253662 63.588932 533.188843 63.588932 464.875 C 63.588932 403.225708 75.839081 345.742798 100.339737 292.424561 C 124.84034 239.106323 157.267197 192.870117 197.621155 153.714355 C 237.975128 114.558838 284.093292 84.151245 335.97699 62.490723 C 387.860718 40.8302 441.184753 30 495.950897 30 C 583.864929 30 656.284912 47.911499 713.21283 83.734497 C 770.140747 119.557739 815.17804 163.711304 848.325928 216.196411 C 881.473816 268.681641 904.893188 324.914795 918.584717 384.897949 C 932.276245 444.880859 939.121948 499.031616 939.121948 547.351074 L 768.338989 547.351074 C 768.338989 499.031616 760.772644 454.0448 745.639893 412.389893 C 730.507202 370.734985 710.330566 334.912476 685.109253 304.920898 C 659.888062 274.929321 631.064209 251.186401 598.636902 233.691406 C 566.209595 216.196411 531.981262 207.449097 495.950897 207.449097 C 462.802979 207.449097 430.73645 213.280518 399.750397 224.943848 C 368.764282 236.607178 341.021362 253.685547 316.520721 276.179199 C 292.02005 298.672729 272.203644 325.748047 257.070923 357.405762 C 241.938171 389.063477 234.371918 424.052979 234.371918 462.37561 C 234.371918 512.361572 244.099991 555.681885 263.556366 592.338135 C 283.012726 628.994385 307.873322 660.651611 338.138794 687.310791 C 368.404236 713.969971 401.911987 735.213623 438.662933 751.04248 C 475.41391 766.871338 510.362823 779.784119 543.510742 789.781311 C 599.718018 804.7771 653.762756 826.437256 705.646423 854.762573 C 757.530151 883.087952 803.648254 918.494019 844.002258 960.981995 C 884.356262 1003.469971 916.422852 1053.038574 940.202881 1109.689209 C 963.982849 1166.339844 975.872681 1230.487305 975.872681 1302.133789 C 975.872681 1377.112671 964.34314 1443.342773 941.283691 1500.82666 C 918.224304 1558.310425 885.797485 1606.629395 844.002258 1645.784912 C 802.207092 1684.94043 752.846252 1714.931519 695.918335 1735.759033 C 638.990417 1756.586426 577.379395 1767 511.083618 1767 C 449.111359 1767 388.94165 1752.004395 330.572449 1722.012939 C 272.203308 1692.021362 220.680679 1651.200317 176.003067 1599.548218 C 131.325455 1547.896118 95.655945 1487.080811 68.993462 1417.100708 C 42.331036 1347.120483 29 1272.142822 29 1192.165527 Z"/>
</svg>
